AmstelvarA2-Roman_wght100.ufo
<glyph name="ampersand" format="2">
  <advance width="1852"/>
  <unicode hex="0026"/>
  <outline>
    <contour>
      <point x="624" y="-28" type="qcurve" smooth="yes"/>
      <point x="331" y="-28"/>
      <point x="80" y="220"/>
      <point x="89" y="374" type="qcurve" smooth="yes"/>
      <point x="95" y="490"/>
      <point x="243" y="787"/>
      <point x="541" y="884" type="qcurve"/>
      <point x="790" y="962"/>
      <point x="967" y="1128"/>
      <point x="967" y="1225" type="qcurve" smooth="yes"/>
      <point x="967" y="1333"/>
      <point x="796" y="1469"/>
      <point x="657" y="1469" type="qcurve" smooth="yes"/>
      <point x="546" y="1469"/>
      <point x="383" y="1336"/>
      <point x="383" y="1202" type="qcurve" smooth="yes"/>
      <point x="383" y="1083"/>
      <point x="511" y="910"/>
      <point x="641" y="864" type="qcurve"/>
      <point x="1208" y="257" type="line" smooth="yes"/>
      <point x="1294" y="162"/>
      <point x="1480" y="27"/>
      <point x="1540" y="27" type="qcurve" smooth="yes"/>
      <point x="1617" y="27"/>
      <point x="1734" y="91"/>
      <point x="1778" y="137" type="qcurve"/>
      <point x="1815" y="113" type="line"/>
      <point x="1762" y="44"/>
      <point x="1616" y="-37"/>
      <point x="1507" y="-37" type="qcurve" smooth="yes"/>
      <point x="1428" y="-37"/>
      <point x="1309" y="48"/>
      <point x="1144" y="210" type="qcurve" smooth="yes"/>
      <point x="557" y="842" type="line"/>
      <point x="463" y="865"/>
      <point x="298" y="1058"/>
      <point x="304" y="1187" type="qcurve" smooth="yes"/>
      <point x="310" y="1318"/>
      <point x="473" y="1516"/>
      <point x="666" y="1516" type="qcurve" smooth="yes"/>
      <point x="855" y="1516"/>
      <point x="1047" y="1357"/>
      <point x="1047" y="1210" type="qcurve" smooth="yes"/>
      <point x="1047" y="1101"/>
      <point x="779" y="903"/>
      <point x="569" y="852" type="qcurve"/>
      <point x="370" y="762"/>
      <point x="188" y="552"/>
      <point x="178" y="403" type="qcurve" smooth="yes"/>
      <point x="167" y="226"/>
      <point x="381" y="51"/>
      <point x="610" y="51" type="qcurve" smooth="yes"/>
      <point x="957" y="51"/>
      <point x="1578" y="567"/>
      <point x="1752" y="868" type="qcurve"/>
      <point x="1800" y="860" type="line"/>
      <point x="1640" y="556"/>
      <point x="956" y="-28"/>
    </contour>
    <contour>
      <point x="1232" y="811" type="line"/>
      <point x="1255" y="874"/>
      <point x="1337" y="945"/>
      <point x="1391" y="945" type="qcurve" smooth="yes"/>
      <point x="1443" y="945"/>
      <point x="1608" y="879"/>
      <point x="1652" y="879" type="qcurve" smooth="yes"/>
      <point x="1686" y="879"/>
      <point x="1736" y="894"/>
      <point x="1765" y="927" type="qcurve"/>
      <point x="1814" y="886" type="line"/>
      <point x="1760" y="825"/>
      <point x="1686" y="808"/>
      <point x="1632" y="813" type="qcurve" smooth="yes"/>
      <point x="1617" y="815"/>
      <point x="1450" y="873"/>
      <point x="1404" y="873" type="qcurve" smooth="yes"/>
      <point x="1357" y="873"/>
      <point x="1290" y="811"/>
      <point x="1269" y="781" type="qcurve"/>
    </contour>
  </outline>
</glyph>
<glyph name="less" format="2">
  <advance width="1244"/>
  <unicode hex="003C"/>
  <outline>
    <contour>
      <point x="195" y="634" type="qcurve"/>
      <point x="198" y="638"/>
      <point x="927" y="1075"/>
      <point x="961" y="1089" type="qcurve" smooth="yes"/>
      <point x="993" y="1104"/>
      <point x="1025" y="1057"/>
      <point x="983" y="1035" type="qcurve" smooth="yes"/>
      <point x="884" y="982"/>
      <point x="345" y="635"/>
      <point x="339" y="635" type="qcurve"/>
      <point x="345" y="635"/>
      <point x="885" y="309"/>
      <point x="985" y="253" type="qcurve" smooth="yes"/>
      <point x="1022" y="234"/>
      <point x="998" y="184"/>
      <point x="965" y="198" type="qcurve" smooth="yes"/>
      <point x="930" y="211"/>
      <point x="197" y="630"/>
    </contour>
  </outline>
</glyph>
<glyph name="equal" format="2">
  <advance width="1244"/>
  <unicode hex="003D"/>
  <outline>
    <contour>
      <point x="126" y="383" type="line"/>
      <point x="126" y="456" type="line"/>
      <point x="619" y="454" type="line"/>
      <point x="1118" y="456" type="line"/>
      <point x="1118" y="383" type="line"/>
      <point x="619" y="385" type="line"/>
    </contour>
    <contour>
      <point x="126" y="785" type="line"/>
      <point x="126" y="858" type="line"/>
      <point x="619" y="856" type="line"/>
      <point x="1118" y="858" type="line"/>
      <point x="1118" y="785" type="line"/>
      <point x="619" y="787" type="line"/>
    </contour>
  </outline>
</glyph>
<glyph name="at" format="2">
  <advance width="1859"/>
  <unicode hex="0040"/>
  <outline>
    <contour>
      <point x="105" y="732" type="qcurve" smooth="yes"/>
      <point x="105" y="1061"/>
      <point x="572" y="1520"/>
      <point x="935" y="1520" type="qcurve" smooth="yes"/>
      <point x="1278" y="1520"/>
      <point x="1754" y="1155"/>
      <point x="1754" y="876" type="qcurve" smooth="yes"/>
      <point x="1754" y="630"/>
      <point x="1550" y="343"/>
      <point x="1367" y="343" type="qcurve" smooth="yes"/>
      <point x="1287" y="343"/>
      <point x="1205" y="411"/>
      <point x="1191" y="491" type="qcurve"/>
      <point x="1136" y="416"/>
      <point x="953" y="317"/>
      <point x="849" y="317" type="qcurve" smooth="yes"/>
      <point x="725" y="317"/>
      <point x="573" y="453"/>
      <point x="573" y="544" type="qcurve" smooth="yes"/>
      <point x="573" y="662"/>
      <point x="833" y="827"/>
      <point x="1220" y="848" type="qcurve"/>
      <point x="1220" y="811" type="line"/>
      <point x="961" y="795"/>
      <point x="645" y="667"/>
      <point x="645" y="540" type="qcurve" smooth="yes"/>
      <point x="645" y="450"/>
      <point x="773" y="383"/>
      <point x="853" y="383" type="qcurve" smooth="yes"/>
      <point x="947" y="383"/>
      <point x="1149" y="485"/>
      <point x="1185" y="533" type="qcurve"/>
      <point x="1188" y="908" type="line" smooth="yes"/>
      <point x="1190" y="1055"/>
      <point x="1052" y="1169"/>
      <point x="922" y="1169" type="qcurve" smooth="yes"/>
      <point x="819" y="1169"/>
      <point x="685" y="1122"/>
      <point x="664" y="1094" type="qcurve"/>
      <point x="691" y="1069"/>
      <point x="719" y="1021"/>
      <point x="722" y="1008" type="qcurve" smooth="yes"/>
      <point x="726" y="989"/>
      <point x="703" y="961"/>
      <point x="681" y="961" type="qcurve" smooth="yes"/>
      <point x="657" y="961"/>
      <point x="630" y="999"/>
      <point x="630" y="1035" type="qcurve" smooth="yes"/>
      <point x="630" y="1101"/>
      <point x="799" y="1213"/>
      <point x="938" y="1213" type="qcurve" smooth="yes"/>
      <point x="1115" y="1213"/>
      <point x="1256" y="1042"/>
      <point x="1254" y="854" type="qcurve" smooth="yes"/>
      <point x="1260" y="443" type="line" smooth="yes"/>
      <point x="1260" y="421"/>
      <point x="1304" y="397"/>
      <point x="1387" y="397" type="qcurve" smooth="yes"/>
      <point x="1552" y="397"/>
      <point x="1695" y="660"/>
      <point x="1695" y="874" type="qcurve" smooth="yes"/>
      <point x="1695" y="1121"/>
      <point x="1267" y="1462"/>
      <point x="929" y="1462" type="qcurve" smooth="yes"/>
      <point x="585" y="1462"/>
      <point x="169" y="1041"/>
      <point x="169" y="738" type="qcurve" smooth="yes"/>
      <point x="169" y="441"/>
      <point x="597" y="25"/>
      <point x="925" y="25" type="qcurve" smooth="yes"/>
      <point x="1103" y="25"/>
      <point x="1321" y="105"/>
      <point x="1372" y="147" type="qcurve"/>
      <point x="1395" y="108" type="line"/>
      <point x="1338" y="57"/>
      <point x="1123" y="-30"/>
      <point x="933" y="-30" type="qcurve" smooth="yes"/>
      <point x="572" y="-30"/>
      <point x="105" y="399"/>
    </contour>
  </outline>
</glyph>
<glyph name="A" format="2">
  <advance width="1646"/>
  <unicode hex="0041"/>
  <anchor x="793" y="0" name="bottom"/>
  <anchor x="1449" y="0" name="ogonek"/>
  <anchor x="533" y="1500" name="tonos"/>
  <anchor x="794" y="1500" name="top"/>
  <outline>
    <contour>
      <point x="34" y="0" type="line"/>
      <point x="34" y="48" type="line"/>
      <point x="221" y="83" type="line"/>
      <point x="429" y="547" type="line"/>
      <point x="846" y="1508" type="line"/>
      <point x="890" y="1508" type="line"/>
      <point x="1292" y="568" type="line"/>
      <point x="1501" y="83" type="line"/>
      <point x="1671" y="48" type="line"/>
      <point x="1671" y="0" type="line"/>
      <point x="1187" y="0" type="line"/>
      <point x="1187" y="48" type="line"/>
      <point x="1404" y="79" type="line"/>
      <point x="1227" y="510" type="line"/>
      <point x="905" y="1269" type="line"/>
      <point x="860" y="1383" type="line"/>
      <point x="848" y="1383" type="line"/>
      <point x="799" y="1269" type="line"/>
      <point x="473" y="502" type="line"/>
      <point x="303" y="78" type="line"/>
      <point x="517" y="48" type="line"/>
      <point x="517" y="0" type="line"/>
    </contour>
    <contour>
      <point x="868" y="535" type="line"/>
      <point x="1240" y="547" type="line"/>
      <point x="1272" y="489" type="line"/>
      <point x="868" y="489" type="line"/>
    </contour>
    <contour>
      <point x="448" y="491" type="line"/>
      <point x="481" y="546" type="line"/>
      <point x="868" y="535" type="line"/>
      <point x="868" y="489" type="line"/>
    </contour>
  </outline>
</glyph>
<glyph name="U" format="2">
  <advance width="1699"/>
  <unicode hex="0055"/>
  <anchor x="828" y="0" name="bottom"/>
  <anchor x="1058" y="0" name="ogonek"/>
  <anchor x="828" y="1500" name="top"/>
  <anchor x="1675" y="1500" name="topright"/>
  <outline>
    <contour>
      <point x="167" y="1445" type="line"/>
      <point x="167" y="1500" type="line"/>
      <point x="696" y="1500" type="line"/>
      <point x="696" y="1445" type="line"/>
      <point x="469" y="1411" type="line"/>
      <point x="463" y="794" type="line"/>
      <point x="468" y="474" type="line" smooth="yes"/>
      <point x="471" y="237"/>
      <point x="709" y="31"/>
      <point x="922" y="31" type="qcurve" smooth="yes"/>
      <point x="1148" y="31"/>
      <point x="1408" y="257"/>
      <point x="1408" y="494" type="qcurve" smooth="yes"/>
      <point x="1409" y="794" type="line"/>
      <point x="1408" y="1411" type="line"/>
      <point x="1170" y="1445" type="line"/>
      <point x="1170" y="1500" type="line"/>
      <point x="1696" y="1500" type="line"/>
      <point x="1696" y="1445" type="line"/>
      <point x="1468" y="1411" type="line"/>
      <point x="1468" y="794" type="line"/>
      <point x="1468" y="493" type="line" smooth="yes"/>
      <point x="1469" y="239"/>
      <point x="1179" y="-32"/>
      <point x="933" y="-31" type="qcurve" smooth="yes"/>
      <point x="650" y="-30"/>
      <point x="388" y="242"/>
      <point x="389" y="481" type="qcurve" smooth="yes"/>
      <point x="387" y="794" type="line"/>
      <point x="385" y="1411" type="line"/>
    </contour>
  </outline>
</glyph>
<glyph name="V" format="2">
  <advance width="1512"/>
  <unicode hex="0056"/>
  <anchor x="702" y="0" name="bottom"/>
  <anchor x="715" y="1500" name="top"/>
  <outline>
    <contour>
      <point x="5" y="1445" type="line"/>
      <point x="5" y="1500" type="line"/>
      <point x="472" y="1500" type="line"/>
      <point x="472" y="1445" type="line"/>
      <point x="261" y="1404" type="line"/>
      <point x="513" y="808" type="line"/>
      <point x="779" y="186" type="line"/>
      <point x="820" y="83" type="line"/>
      <point x="829" y="83" type="line"/>
      <point x="868" y="186" type="line"/>
      <point x="1122" y="815" type="line"/>
      <point x="1369" y="1411" type="line"/>
      <point x="1140" y="1445" type="line"/>
      <point x="1140" y="1500" type="line"/>
      <point x="1607" y="1504" type="line"/>
      <point x="1607" y="1448" type="line"/>
      <point x="1427" y="1406" type="line"/>
      <point x="1168" y="792" type="line"/>
      <point x="837" y="-8" type="line"/>
      <point x="785" y="-8" type="line"/>
      <point x="461" y="737" type="line"/>
      <point x="170" y="1406" type="line"/>
    </contour>
  </outline>
</glyph>
<glyph name="W" format="2">
  <advance width="2199"/>
  <unicode hex="0057"/>
  <anchor x="1053" y="0" name="bottom"/>
  <anchor x="1053" y="1500" name="top"/>
  <outline>
    <contour>
      <point x="717" y="-8" type="line"/>
      <point x="435" y="698" type="line"/>
      <point x="142" y="1405" type="line"/>
      <point x="-24" y="1445" type="line"/>
      <point x="-24" y="1500" type="line"/>
      <point x="570" y="1500" type="line"/>
      <point x="570" y="1445" type="line"/>
      <point x="342" y="1403" type="line"/>
      <point x="594" y="759" type="line"/>
      <point x="761" y="349" type="line"/>
      <point x="801" y="235" type="line"/>
      <point x="811" y="235" type="line"/>
      <point x="852" y="349" type="line"/>
      <point x="978" y="679" type="line"/>
      <point x="1121" y="1054" type="line"/>
      <point x="989" y="1410" type="line"/>
      <point x="820" y="1449" type="line"/>
      <point x="820" y="1500" type="line"/>
      <point x="1394" y="1500" type="line"/>
      <point x="1394" y="1449" type="line"/>
      <point x="1189" y="1408" type="line"/>
      <point x="1395" y="816" type="line"/>
      <point x="1563" y="349" type="line"/>
      <point x="1599" y="235" type="line"/>
      <point x="1611" y="235" type="line"/>
      <point x="1652" y="349" type="line"/>
      <point x="1841" y="803" type="line"/>
      <point x="2081" y="1407" type="line"/>
      <point x="1846" y="1445" type="line"/>
      <point x="1846" y="1500" type="line"/>
      <point x="2422" y="1500" type="line"/>
      <point x="2422" y="1445" type="line"/>
      <point x="2234" y="1402" type="line"/>
      <point x="1959" y="760" type="line"/>
      <point x="1632" y="-8" type="line"/>
      <point x="1510" y="-8" type="line"/>
      <point x="1225" y="773" type="line"/>
      <point x="1186" y="889" type="line"/>
      <point x="1176" y="889" type="line"/>
      <point x="1136" y="773" type="line"/>
      <point x="832" y="-8" type="line"/>
    </contour>
  </outline>
</glyph>
<glyph name="backslash" format="2">
  <advance width="857"/>
  <unicode hex="005C"/>
  <outline>
    <contour>
      <point x="19" y="1525" type="line"/>
      <point x="76" y="1554" type="line"/>
      <point x="854" y="-131" type="line"/>
      <point x="797" y="-160" type="line"/>
    </contour>
  </outline>
</glyph>
<glyph name="g" format="2">
  <advance width="1030"/>
  <unicode hex="0067"/>
  <anchor x="510" y="-416" name="bottom"/>
  <anchor x="470" y="998" name="top"/>
  <outline>
    <contour>
      <point x="41" y="-264" type="qcurve" smooth="yes"/>
      <point x="41" y="-175"/>
      <point x="155" y="-73"/>
      <point x="279" y="-42" type="qcurve"/>
      <point x="283" y="-40" type="line"/>
      <point x="209" y="-69"/>
      <point x="105" y="-165"/>
      <point x="105" y="-244" type="qcurve" smooth="yes"/>
      <point x="105" y="-348"/>
      <point x="302" y="-471"/>
      <point x="544" y="-471" type="qcurve" smooth="yes"/>
      <point x="739" y="-471"/>
      <point x="987" y="-376"/>
      <point x="987" y="-266" type="qcurve" smooth="yes"/>
      <point x="987" y="-171"/>
      <point x="790" y="-88"/>
      <point x="522" y="-76" type="qcurve" smooth="yes"/>
      <point x="326" y="-67"/>
      <point x="112" y="14"/>
      <point x="113" y="104" type="qcurve" smooth="yes"/>
      <point x="113" y="181"/>
      <point x="245" y="258"/>
      <point x="316" y="280" type="qcurve"/>
      <point x="316" y="285" type="line"/>
      <point x="250" y="262"/>
      <point x="159" y="194"/>
      <point x="158" y="136" type="qcurve" smooth="yes"/>
      <point x="158" y="67"/>
      <point x="330" y="3"/>
      <point x="533" y="-6" type="qcurve" smooth="yes"/>
      <point x="794" y="-17"/>
      <point x="1005" y="-111"/>
      <point x="1005" y="-206" type="qcurve" smooth="yes"/>
      <point x="1005" y="-331"/>
      <point x="754" y="-518"/>
      <point x="479" y="-518" type="qcurve" smooth="yes"/>
      <point x="233" y="-518"/>
      <point x="41" y="-378"/>
    </contour>
    <contour>
      <point x="126" y="627" type="qcurve" smooth="yes"/>
      <point x="126" y="798"/>
      <point x="321" y="1020"/>
      <point x="478" y="1020" type="qcurve" smooth="yes"/>
      <point x="637" y="1020"/>
      <point x="833" y="814"/>
      <point x="833" y="632" type="qcurve" smooth="yes"/>
      <point x="833" y="461"/>
      <point x="640" y="215"/>
      <point x="484" y="215" type="qcurve" smooth="yes"/>
      <point x="325" y="215"/>
      <point x="126" y="442"/>
    </contour>
    <contour>
      <point x="203" y="637" type="qcurve" smooth="yes"/>
      <point x="203" y="455"/>
      <point x="355" y="260"/>
      <point x="488" y="260" type="qcurve" smooth="yes"/>
      <point x="611" y="260"/>
      <point x="755" y="440"/>
      <point x="755" y="626" type="qcurve" smooth="yes"/>
      <point x="755" y="785"/>
      <point x="604" y="971"/>
      <point x="472" y="971" type="qcurve" smooth="yes"/>
      <point x="349" y="971"/>
      <point x="203" y="803"/>
    </contour>
    <contour>
      <point x="611" y="964" type="line"/>
      <point x="539" y="998" type="line"/>
      <point x="994" y="998" type="line"/>
      <point x="994" y="905" type="line"/>
    </contour>
  </outline>
</glyph>
<glyph name="o" format="2">
  <advance width="1106"/>
  <unicode hex="006F"/>
  <anchor x="555" y="0" name="bottom"/>
  <anchor x="555" y="499" name="center"/>
  <anchor x="730" y="0" name="ogonek"/>
  <anchor x="555" y="998" name="top"/>
  <anchor x="734" y="998" name="topright"/>
  <anchor x="555" y="998" name="GRKtop"/>
  <outline>
    <contour>
      <point x="90" y="507" type="qcurve" smooth="yes"/>
      <point x="90" y="735"/>
      <point x="331" y="1020"/>
      <point x="553" y="1020" type="qcurve" smooth="yes"/>
      <point x="761" y="1020"/>
      <point x="1016" y="736"/>
      <point x="1016" y="505" type="qcurve" smooth="yes"/>
      <point x="1016" y="289"/>
      <point x="773" y="-22"/>
      <point x="559" y="-22" type="qcurve" smooth="yes"/>
      <point x="340" y="-22"/>
      <point x="90" y="280"/>
    </contour>
    <contour>
      <point x="172" y="519" type="qcurve" smooth="yes"/>
      <point x="173" y="312"/>
      <point x="381" y="26"/>
      <point x="553" y="26" type="qcurve" smooth="yes"/>
      <point x="736" y="26"/>
      <point x="936" y="289"/>
      <point x="936" y="505" type="qcurve" smooth="yes"/>
      <point x="936" y="707"/>
      <point x="727" y="970"/>
      <point x="555" y="970" type="qcurve" smooth="yes"/>
      <point x="370" y="970"/>
      <point x="171" y="734"/>
    </contour>
  </outline>
</glyph>
<glyph name="copyright" format="2">
  <advance width="2100"/>
  <unicode hex="00A9"/>
  <outline>
    <contour>
      <point x="575" y="662" type="qcurve" smooth="yes"/>
      <point x="575" y="901"/>
      <point x="843" y="1209"/>
      <point x="1075" y="1209" type="qcurve" smooth="yes"/>
      <point x="1140" y="1209"/>
      <point x="1264" y="1176"/>
      <point x="1295" y="1152" type="qcurve"/>
      <point x="1327" y="1206" type="line"/>
      <point x="1371" y="1192" type="line"/>
      <point x="1387" y="842" type="line"/>
      <point x="1338" y="834" type="line"/>
      <point x="1289" y="1019" type="line"/>
      <point x="1245" y="1088"/>
      <point x="1138" y="1161"/>
      <point x="1078" y="1161" type="qcurve" smooth="yes"/>
      <point x="932" y="1161"/>
      <point x="755" y="898"/>
      <point x="755" y="680" type="qcurve" smooth="yes"/>
      <point x="755" y="454"/>
      <point x="956" y="221"/>
      <point x="1090" y="221" type="qcurve" smooth="yes"/>
      <point x="1204" y="221"/>
      <point x="1415" y="337"/>
      <point x="1469" y="413" type="qcurve"/>
      <point x="1496" y="380" type="line"/>
      <point x="1434" y="287"/>
      <point x="1196" y="165"/>
      <point x="1086" y="165" type="qcurve" smooth="yes"/>
      <point x="855" y="165"/>
      <point x="575" y="433"/>
    </contour>
    <contour>
      <point x="127" y="685" type="qcurve" smooth="yes"/>
      <point x="127" y="1061"/>
      <point x="648" y="1570"/>
      <point x="1052" y="1570" type="qcurve" smooth="yes"/>
      <point x="1454" y="1570"/>
      <point x="1973" y="1087"/>
      <point x="1973" y="706" type="qcurve" smooth="yes"/>
      <point x="1973" y="288"/>
      <point x="1461" y="-242"/>
      <point x="1064" y="-242" type="qcurve" smooth="yes"/>
      <point x="655" y="-242"/>
      <point x="127" y="276"/>
    </contour>
    <contour>
      <point x="197" y="683" type="qcurve" smooth="yes"/>
      <point x="197" y="300"/>
      <point x="695" y="-189"/>
      <point x="1070" y="-189" type="qcurve" smooth="yes"/>
      <point x="1438" y="-189"/>
      <point x="1903" y="320"/>
      <point x="1903" y="703" type="qcurve" smooth="yes"/>
      <point x="1903" y="1050"/>
      <point x="1427" y="1517"/>
      <point x="1044" y="1517" type="qcurve" smooth="yes"/>
      <point x="668" y="1517"/>
      <point x="197" y="1033"/>
    </contour>
  </outline>
</glyph>
<glyph name="macronbelowcomb" format="2">
  <advance width="318"/>
  <unicode hex="0331"/>
  <anchor x="159" y="0" name="_bottom"/>
  <anchor x="159" y="-300" name="bottom"/>
  <outline>
    <contour>
      <point x="-137" y="-300" type="line"/>
      <point x="-137" y="-144" type="line"/>
      <point x="455" y="-144" type="line"/>
      <point x="455" y="-300" type="line"/>
    </contour>
  </outline>
</glyph>
<glyph name="Delta" format="2">
  <advance width="1509"/>
  <unicode hex="0394"/>
  <outline>
    <contour>
      <point x="137" y="0" type="line"/>
      <point x="137" y="47" type="line"/>
      <point x="340" y="536" type="line"/>
      <point x="685" y="1508" type="line"/>
      <point x="814" y="1508" type="line"/>
      <point x="1161" y="568" type="line"/>
      <point x="1381" y="48" type="line"/>
      <point x="1381" y="0" type="line"/>
    </contour>
    <contour>
      <point x="217" y="47" type="line"/>
      <point x="755" y="43" type="line"/>
      <point x="1276" y="46" type="line"/>
      <point x="1285" y="52" type="line"/>
      <point x="1095" y="472" type="line"/>
      <point x="821" y="1141" type="line"/>
      <point x="743" y="1404" type="line"/>
      <point x="730" y="1404" type="line"/>
      <point x="657" y="1129" type="line"/>
      <point x="350" y="399" type="line"/>
      <point x="207" y="53" type="line"/>
    </contour>
  </outline>
</glyph>
<glyph name="Theta" format="2">
  <advance width="1657"/>
  <unicode hex="0398"/>
  <outline>
    <contour>
      <point x="843" y="-31" type="qcurve"/>
      <point x="521" y="-31"/>
      <point x="106" y="396"/>
      <point x="106" y="715" type="qcurve" smooth="yes"/>
      <point x="106" y="989"/>
      <point x="504" y="1520"/>
      <point x="828" y="1520" type="qcurve" smooth="yes"/>
      <point x="1155" y="1520"/>
      <point x="1551" y="1097"/>
      <point x="1551" y="771" type="qcurve" smooth="yes"/>
      <point x="1551" y="507"/>
      <point x="1164" y="-31"/>
    </contour>
    <contour>
      <point x="837" y="26" type="qcurve"/>
      <point x="1126" y="26"/>
      <point x="1467" y="335"/>
      <point x="1467" y="745" type="qcurve"/>
      <point x="1467" y="1061"/>
      <point x="1082" y="1460"/>
      <point x="837" y="1460" type="qcurve"/>
      <point x="535" y="1460"/>
      <point x="190" y="1169"/>
      <point x="190" y="841" type="qcurve" smooth="yes"/>
      <point x="190" y="507"/>
      <point x="667" y="26"/>
    </contour>
    <contour>
      <point x="411" y="700" type="line"/>
      <point x="411" y="776" type="line"/>
      <point x="421" y="776" type="line"/>
      <point x="824" y="762" type="line"/>
      <point x="834" y="762" type="line"/>
      <point x="1235" y="776" type="line"/>
      <point x="1245" y="776" type="line"/>
      <point x="1245" y="700" type="line"/>
      <point x="1235" y="700" type="line"/>
      <point x="834" y="709" type="line"/>
      <point x="824" y="709" type="line"/>
      <point x="421" y="700" type="line"/>
    </contour>
  </outline>
</glyph>
<glyph name="Xi" format="2">
  <advance width="1514"/>
  <unicode hex="039E"/>
  <outline>
    <contour>
      <point x="124" y="0" type="line"/>
      <point x="75" y="408" type="line"/>
      <point x="135" y="408" type="line"/>
      <point x="217" y="65" type="line"/>
      <point x="756" y="52" type="line"/>
      <point x="1295" y="66" type="line"/>
      <point x="1379" y="408" type="line"/>
      <point x="1439" y="408" type="line"/>
      <point x="1389" y="0" type="line"/>
    </contour>
    <contour>
      <point x="320" y="523" type="line"/>
      <point x="320" y="949" type="line"/>
      <point x="370" y="949" type="line"/>
      <point x="405" y="767" type="line"/>
      <point x="756" y="759" type="line"/>
      <point x="1109" y="769" type="line"/>
      <point x="1144" y="949" type="line"/>
      <point x="1193" y="949" type="line"/>
      <point x="1193" y="523" type="line"/>
      <point x="1144" y="523" type="line"/>
      <point x="1109" y="704" type="line"/>
      <point x="756" y="713" type="line"/>
      <point x="405" y="705" type="line"/>
      <point x="370" y="523" type="line"/>
    </contour>
    <contour>
      <point x="119" y="1069" type="line"/>
      <point x="119" y="1500" type="line"/>
      <point x="1394" y="1500" type="line"/>
      <point x="1394" y="1069" type="line"/>
      <point x="1334" y="1069" type="line"/>
      <point x="1302" y="1430" type="line"/>
      <point x="756" y="1444" type="line"/>
      <point x="211" y="1431" type="line"/>
      <point x="179" y="1069" type="line"/>
    </contour>
  </outline>
</glyph>
<glyph name="epsilon" format="2">
  <advance width="1005"/>
  <unicode hex="03B5"/>
  <anchor x="499" y="1000" name="GRKtop"/>
  <outline>
    <contour>
      <point x="487" y="-22" type="qcurve"/>
      <point x="279" y="-22"/>
      <point x="64" y="125"/>
      <point x="64" y="269" type="qcurve"/>
      <point x="64" y="363"/>
      <point x="186" y="491"/>
      <point x="307" y="507" type="qcurve"/>
      <point x="307" y="514" type="line"/>
      <point x="201" y="533"/>
      <point x="97" y="659"/>
      <point x="97" y="741" type="qcurve"/>
      <point x="97" y="873"/>
      <point x="322" y="1022"/>
      <point x="505" y="1022" type="qcurve"/>
      <point x="630" y="1022"/>
      <point x="846" y="964"/>
      <point x="885" y="928" type="qcurve"/>
      <point x="885" y="654" type="line"/>
      <point x="788" y="654" type="line"/>
      <point x="730" y="931" type="line"/>
      <point x="691" y="954"/>
      <point x="563" y="974"/>
      <point x="506" y="974" type="qcurve"/>
      <point x="354" y="974"/>
      <point x="171" y="855"/>
      <point x="171" y="742" type="qcurve"/>
      <point x="171" y="661"/>
      <point x="263" y="550"/>
      <point x="390" y="534" type="qcurve"/>
      <point x="644" y="553" type="line"/>
      <point x="658" y="533" type="line"/>
      <point x="635" y="462" type="line"/>
      <point x="393" y="481" type="line"/>
      <point x="248" y="467"/>
      <point x="143" y="358"/>
      <point x="143" y="277" type="qcurve"/>
      <point x="143" y="159"/>
      <point x="313" y="33"/>
      <point x="487" y="33" type="qcurve"/>
      <point x="632" y="33"/>
      <point x="856" y="144"/>
      <point x="916" y="209" type="qcurve"/>
      <point x="940" y="181" type="line"/>
      <point x="870" y="94"/>
      <point x="627" y="-22"/>
    </contour>
  </outline>
</glyph>
<glyph name="iota" format="2">
  <advance width="546"/>
  <unicode hex="03B9"/>
  <anchor x="199" y="1000" name="GRKtop"/>
  <outline>
    <contour>
      <point x="283" y="-8" type="line"/>
      <point x="220" y="-7"/>
      <point x="158" y="93"/>
      <point x="158" y="171" type="qcurve"/>
      <point x="158" y="326" type="line"/>
      <point x="156" y="990" type="line"/>
      <point x="232" y="1000" type="line"/>
      <point x="245" y="980" type="line"/>
      <point x="231" y="301" type="line"/>
      <point x="231" y="173"/>
      <point x="297" y="109"/>
      <point x="379" y="109" type="qcurve"/>
      <point x="466" y="109" type="line"/>
      <point x="466" y="29" type="line"/>
    </contour>
  </outline>
</glyph>
<glyph name="kappa" format="2">
  <advance width="1112"/>
  <unicode hex="03BA"/>
  <outline>
    <contour>
      <point x="169" y="0" type="line"/>
      <point x="156" y="21" type="line"/>
      <point x="159" y="420" type="line"/>
      <point x="156" y="989" type="line"/>
      <point x="235" y="1000" type="line"/>
      <point x="246" y="982" type="line"/>
      <point x="235" y="421" type="line"/>
      <point x="241" y="12" type="line"/>
    </contour>
    <contour>
      <point x="196" y="127" type="line"/>
      <point x="196" y="196" type="line"/>
      <point x="719" y="803" type="line" smooth="yes"/>
      <point x="800" y="895"/>
      <point x="915" y="1008"/>
      <point x="1002" y="1010" type="qcurve"/>
      <point x="1016" y="991" type="line"/>
      <point x="1009" y="925" type="line"/>
      <point x="912" y="923"/>
      <point x="744" y="747"/>
      <point x="709" y="708" type="qcurve" smooth="yes"/>
    </contour>
    <contour>
      <point x="955" y="-8" type="line"/>
      <point x="891" y="-7"/>
      <point x="815" y="38"/>
      <point x="766" y="110" type="qcurve" smooth="yes"/>
      <point x="493" y="507" type="line"/>
      <point x="590" y="490" type="line"/>
      <point x="791" y="215" type="line" smooth="yes"/>
      <point x="832" y="152"/>
      <point x="927" y="97"/>
      <point x="993" y="97" type="qcurve" smooth="yes"/>
      <point x="1067" y="97" type="line"/>
      <point x="1067" y="17" type="line"/>
    </contour>
  </outline>
</glyph>
<glyph name="xi" format="2">
  <advance width="902"/>
  <unicode hex="03BE"/>
  <outline>
    <contour>
      <point x="718" y="-313" type="line"/>
      <point x="674" y="-80" type="line" smooth="yes"/>
      <point x="667" y="-41"/>
      <point x="645" y="27"/>
      <point x="613" y="30" type="qcurve" smooth="yes"/>
      <point x="515" y="39" type="line" smooth="yes"/>
      <point x="306" y="60"/>
      <point x="62" y="248"/>
      <point x="62" y="427" type="qcurve"/>
      <point x="62" y="558"/>
      <point x="209" y="766"/>
      <point x="375" y="811" type="qcurve"/>
      <point x="375" y="818" type="line"/>
      <point x="253" y="845"/>
      <point x="125" y="982"/>
      <point x="125" y="1108" type="qcurve" smooth="yes"/>
      <point x="125" y="1211"/>
      <point x="291" y="1366"/>
      <point x="477" y="1410" type="qcurve"/>
      <point x="447" y="1433" type="line"/>
      <point x="112" y="1428" type="line"/>
      <point x="87" y="1447" type="line"/>
      <point x="94" y="1512" type="line"/>
      <point x="864" y="1500" type="line"/>
      <point x="864" y="1447" type="line"/>
      <point x="764" y="1433" type="line" smooth="yes"/>
      <point x="452" y="1400"/>
      <point x="205" y="1245"/>
      <point x="205" y="1120" type="qcurve"/>
      <point x="205" y="1015"/>
      <point x="309" y="860"/>
      <point x="428" y="837" type="qcurve"/>
      <point x="780" y="885" type="line"/>
      <point x="798" y="866" type="line"/>
      <point x="774" y="784" type="line"/>
      <point x="428" y="784" type="line"/>
      <point x="281" y="747"/>
      <point x="141" y="560"/>
      <point x="141" y="427" type="qcurve"/>
      <point x="141" y="279"/>
      <point x="330" y="111"/>
      <point x="519" y="97" type="qcurve" smooth="yes"/>
      <point x="705" y="84" type="line" smooth="yes"/>
      <point x="781" y="79"/>
      <point x="834" y="43"/>
      <point x="836" y="5" type="qcurve"/>
      <point x="798" y="-313" type="line"/>
    </contour>
  </outline>
</glyph>
<glyph name="finalsigma" format="2">
  <advance width="919"/>
  <unicode hex="03C2"/>
  <outline>
    <contour>
      <point x="718" y="-313" type="line"/>
      <point x="668" y="-50" type="line" smooth="yes"/>
      <point x="660" y="-7"/>
      <point x="632" y="22"/>
      <point x="589" y="25" type="qcurve" smooth="yes"/>
      <point x="500" y="31" type="line" smooth="yes"/>
      <point x="302" y="43"/>
      <point x="64" y="283"/>
      <point x="64" y="505" type="qcurve"/>
      <point x="64" y="733"/>
      <point x="293" y="1021"/>
      <point x="517" y="1022" type="qcurve"/>
      <point x="637" y="1022"/>
      <point x="827" y="958"/>
      <point x="865" y="928" type="qcurve"/>
      <point x="865" y="654" type="line"/>
      <point x="768" y="654" type="line"/>
      <point x="710" y="925" type="line"/>
      <point x="687" y="941"/>
      <point x="570" y="974"/>
      <point x="504" y="974" type="qcurve"/>
      <point x="334" y="974"/>
      <point x="143" y="731"/>
      <point x="143" y="505" type="qcurve"/>
      <point x="143" y="309"/>
      <point x="326" y="107"/>
      <point x="509" y="97" type="qcurve" smooth="yes"/>
      <point x="740" y="83" type="line" smooth="yes"/>
      <point x="787" y="81"/>
      <point x="836" y="44"/>
      <point x="836" y="5" type="qcurve"/>
      <point x="798" y="-313" type="line"/>
    </contour>
  </outline>
</glyph>
<glyph name="tau" format="2">
  <advance width="980"/>
  <unicode hex="03C4"/>
  <outline>
    <contour>
      <point x="26" y="934" type="line"/>
      <point x="26" y="970" type="line"/>
      <point x="89" y="1000" type="line"/>
      <point x="905" y="1004" type="line"/>
      <point x="917" y="987" type="line"/>
      <point x="911" y="922" type="line"/>
    </contour>
    <contour>
      <point x="587" y="-8" type="line"/>
      <point x="518" y="-7"/>
      <point x="439" y="98"/>
      <point x="442" y="230" type="qcurve" smooth="yes"/>
      <point x="456" y="962" type="line"/>
      <point x="507" y="962" type="line"/>
      <point x="518" y="265" type="line" smooth="yes"/>
      <point x="520" y="184"/>
      <point x="588" y="109"/>
      <point x="649" y="109" type="qcurve"/>
      <point x="812" y="109" type="line"/>
      <point x="812" y="29" type="line"/>
    </contour>
  </outline>
</glyph>
<glyph name="upsilon" format="2">
  <advance width="996"/>
  <unicode hex="03C5"/>
  <anchor x="463" y="1000" name="GRKtop"/>
  <outline>
    <contour>
      <point x="530" y="-21" type="qcurve"/>
      <point x="366" y="-21"/>
      <point x="187" y="172"/>
      <point x="187" y="369" type="qcurve" smooth="yes"/>
      <point x="187" y="760" type="line" smooth="yes"/>
      <point x="187" y="828"/>
      <point x="157" y="891"/>
      <point x="114" y="899" type="qcurve" smooth="yes"/>
      <point x="55" y="911" type="line"/>
      <point x="55" y="991" type="line"/>
      <point x="139" y="1008" type="line"/>
      <point x="196" y="1008"/>
      <point x="261" y="908"/>
      <point x="261" y="831" type="qcurve" smooth="yes"/>
      <point x="261" y="367" type="line" smooth="yes"/>
      <point x="261" y="200"/>
      <point x="399" y="36"/>
      <point x="530" y="36" type="qcurve" smooth="yes"/>
      <point x="672" y="36"/>
      <point x="847" y="270"/>
      <point x="847" y="520" type="qcurve"/>
      <point x="847" y="634"/>
      <point x="781" y="902"/>
      <point x="681" y="999" type="qcurve"/>
      <point x="734" y="1029" type="line"/>
      <point x="849" y="927"/>
      <point x="927" y="649"/>
      <point x="927" y="520" type="qcurve"/>
      <point x="927" y="267"/>
      <point x="705" y="-21"/>
    </contour>
  </outline>
</glyph>
<glyph name="chi" format="2">
  <advance width="1023"/>
  <unicode hex="03C7"/>
  <outline>
    <contour>
      <point x="61" y="-480" type="line"/>
      <point x="50" y="-462" type="line"/>
      <point x="366" y="59" type="line"/>
      <point x="494" y="285" type="line"/>
      <point x="227" y="799" type="line" smooth="yes"/>
      <point x="207" y="835"/>
      <point x="146" y="881"/>
      <point x="94" y="890" type="qcurve" smooth="yes"/>
      <point x="27" y="902" type="line"/>
      <point x="27" y="982" type="line"/>
      <point x="113" y="1008" type="line"/>
      <point x="158" y="1008"/>
      <point x="229" y="961"/>
      <point x="265" y="889" type="qcurve" smooth="yes"/>
      <point x="437" y="534" type="line"/>
      <point x="531" y="353" type="line"/>
      <point x="537" y="353" type="line"/>
      <point x="682" y="598" type="line"/>
      <point x="900" y="991" type="line"/>
      <point x="970" y="1000" type="line"/>
      <point x="981" y="983" type="line"/>
      <point x="721" y="564" type="line"/>
      <point x="598" y="232" type="line"/>
      <point x="860" y="-254" type="line"/>
      <point x="909" y="-344"/>
      <point x="954" y="-391"/>
      <point x="1034" y="-389" type="qcurve"/>
      <point x="1066" y="-389" type="line"/>
      <point x="1066" y="-469" type="line"/>
      <point x="978" y="-488" type="line"/>
      <point x="928" y="-488"/>
      <point x="870" y="-443"/>
      <point x="844" y="-391" type="qcurve" smooth="yes"/>
      <point x="605" y="69" type="line"/>
      <point x="523" y="238" type="line"/>
      <point x="517" y="239" type="line"/>
      <point x="403" y="21" type="line"/>
      <point x="131" y="-471" type="line"/>
    </contour>
  </outline>
</glyph>
<glyph name="psi" format="2">
  <advance width="1260"/>
  <unicode hex="03C8"/>
  <outline>
    <contour>
      <point x="646" y="-480" type="line"/>
      <point x="632" y="-462" type="line"/>
      <point x="636" y="1" type="line"/>
      <point x="640" y="-1" type="line"/>
      <point x="642" y="1526" type="line"/>
      <point x="692" y="1534" type="line"/>
      <point x="704" y="1516" type="line"/>
      <point x="708" y="-1" type="line"/>
      <point x="712" y="1" type="line"/>
      <point x="716" y="-470" type="line"/>
    </contour>
    <contour>
      <point x="672" y="-21" type="qcurve"/>
      <point x="424" y="-21"/>
      <point x="188" y="189"/>
      <point x="187" y="377" type="qcurve"/>
      <point x="187" y="772" type="line" smooth="yes"/>
      <point x="187" y="828"/>
      <point x="156" y="890"/>
      <point x="114" y="898" type="qcurve" smooth="yes"/>
      <point x="55" y="910" type="line"/>
      <point x="55" y="990" type="line"/>
      <point x="139" y="1008" type="line"/>
      <point x="196" y="1008"/>
      <point x="261" y="908"/>
      <point x="261" y="831" type="qcurve" smooth="yes"/>
      <point x="261" y="375" type="line"/>
      <point x="260" y="209"/>
      <point x="465" y="36"/>
      <point x="671" y="36" type="qcurve"/>
      <point x="882" y="36"/>
      <point x="1111" y="261"/>
      <point x="1111" y="520" type="qcurve" smooth="yes"/>
      <point x="1111" y="634"/>
      <point x="1045" y="902"/>
      <point x="945" y="999" type="qcurve"/>
      <point x="998" y="1029" type="line"/>
      <point x="1112" y="922"/>
      <point x="1191" y="648"/>
      <point x="1191" y="520" type="qcurve" smooth="yes"/>
      <point x="1191" y="266"/>
      <point x="924" y="-21"/>
    </contour>
  </outline>
</glyph>
<glyph name="De" format="2">
  <advance width="1695"/>
  <unicode hex="0414"/>
  <outline>
    <contour>
      <point x="1529" y="-326" type="line"/>
      <point x="1463" y="9" type="line"/>
      <point x="222" y="9" type="line"/>
      <point x="156" y="-326" type="line"/>
      <point x="94" y="-326" type="line"/>
      <point x="104" y="56" type="line"/>
      <point x="1582" y="56" type="line"/>
      <point x="1591" y="-326" type="line"/>
    </contour>
    <contour>
      <point x="433" y="794" type="qcurve" smooth="yes"/>
      <point x="486" y="1411" type="line"/>
      <point x="236" y="1445" type="line"/>
      <point x="236" y="1500" type="line"/>
      <point x="1607" y="1500" type="line"/>
      <point x="1607" y="1445" type="line"/>
      <point x="1379" y="1411" type="line"/>
      <point x="1377" y="754" type="line"/>
      <point x="1379" y="31" type="line"/>
      <point x="1297" y="31" type="line"/>
      <point x="1299" y="754" type="line"/>
      <point x="1297" y="1421" type="line"/>
      <point x="1257" y="1449" type="line"/>
      <point x="586" y="1449" type="line"/>
      <point x="546" y="1421" type="line"/>
      <point x="491" y="793" type="line" smooth="yes"/>
      <point x="466" y="503"/>
      <point x="398" y="185"/>
      <point x="328" y="33" type="qcurve"/>
      <point x="248" y="33" type="line"/>
      <point x="330" y="189"/>
      <point x="408" y="508"/>
    </contour>
  </outline>
</glyph>
<glyph name="El" format="2">
  <advance width="1705"/>
  <unicode hex="041B"/>
  <outline>
    <contour>
      <point x="460" y="754" type="qcurve" smooth="yes"/>
      <point x="517" y="1411" type="line"/>
      <point x="276" y="1445" type="line"/>
      <point x="276" y="1500" type="line"/>
      <point x="1617" y="1500" type="line"/>
      <point x="1617" y="1445" type="line"/>
      <point x="1389" y="1411" type="line"/>
      <point x="1387" y="754" type="line"/>
      <point x="1389" y="83" type="line"/>
      <point x="1617" y="48" type="line"/>
      <point x="1617" y="0" type="line"/>
      <point x="1099" y="0" type="line"/>
      <point x="1099" y="48" type="line"/>
      <point x="1307" y="83" type="line"/>
      <point x="1309" y="754" type="line"/>
      <point x="1307" y="1421" type="line"/>
      <point x="1267" y="1449" type="line"/>
      <point x="615" y="1449" type="line"/>
      <point x="575" y="1421" type="line"/>
      <point x="519" y="754" type="line" smooth="yes"/>
      <point x="483" y="328"/>
      <point x="373" y="-17"/>
      <point x="165" y="-17" type="qcurve" smooth="yes"/>
      <point x="141" y="-17"/>
      <point x="105" y="-10"/>
      <point x="76" y="0" type="qcurve"/>
      <point x="76" y="178" type="line"/>
      <point x="100" y="170"/>
      <point x="140" y="165"/>
      <point x="161" y="165" type="qcurve" smooth="yes"/>
      <point x="302" y="165"/>
      <point x="436" y="471"/>
    </contour>
  </outline>
</glyph>
<glyph name="ve" format="2">
  <advance width="1006"/>
  <unicode hex="0432"/>
  <outline>
    <contour>
      <point x="86" y="998" type="line"/>
      <point x="540" y="998" type="line" smooth="yes"/>
      <point x="693" y="998"/>
      <point x="846" y="876"/>
      <point x="846" y="771" type="qcurve" smooth="yes"/>
      <point x="846" y="685"/>
      <point x="761" y="564"/>
      <point x="686" y="544" type="qcurve"/>
      <point x="686" y="540" type="line"/>
      <point x="781" y="521"/>
      <point x="915" y="397"/>
      <point x="915" y="285" type="qcurve" smooth="yes"/>
      <point x="915" y="149"/>
      <point x="719" y="0"/>
      <point x="549" y="0" type="qcurve" smooth="yes"/>
      <point x="86" y="0" type="line"/>
      <point x="86" y="40" type="line"/>
      <point x="288" y="75" type="line"/>
      <point x="290" y="499" type="line"/>
      <point x="288" y="923" type="line"/>
      <point x="86" y="958" type="line"/>
    </contour>
    <contour>
      <point x="366" y="44" type="line"/>
      <point x="585" y="44" type="line" smooth="yes"/>
      <point x="710" y="44"/>
      <point x="840" y="161"/>
      <point x="840" y="278" type="qcurve" smooth="yes"/>
      <point x="840" y="387"/>
      <point x="715" y="509"/>
      <point x="602" y="509" type="qcurve" smooth="yes"/>
      <point x="327" y="509" type="line"/>
      <point x="327" y="552" type="line"/>
      <point x="548" y="552" type="line" smooth="yes"/>
      <point x="660" y="552"/>
      <point x="772" y="662"/>
      <point x="772" y="762" type="qcurve" smooth="yes"/>
      <point x="772" y="865"/>
      <point x="662" y="954"/>
      <point x="556" y="954" type="qcurve" smooth="yes"/>
      <point x="366" y="954" type="line"/>
      <point x="364" y="499" type="line"/>
    </contour>
  </outline>
</glyph>
<glyph name="icyr" format="2">
  <advance width="1258"/>
  <unicode hex="0438"/>
  <anchor x="630" y="0" name="bottom"/>
  <anchor x="630" y="998" name="top"/>
  <outline>
    <contour>
      <point x="287" y="272" type="line"/>
      <point x="637" y="542" type="line"/>
      <point x="901" y="738" type="line"/>
      <point x="970" y="732" type="line"/>
      <point x="659" y="495" type="line"/>
      <point x="358" y="269" type="line"/>
    </contour>
    <contour>
      <point x="268" y="499" type="line"/>
      <point x="266" y="923" type="line"/>
      <point x="86" y="958" type="line"/>
      <point x="86" y="998" type="line"/>
      <point x="513" y="998" type="line"/>
      <point x="513" y="958" type="line"/>
      <point x="343" y="923" type="line"/>
      <point x="341" y="499" type="line"/>
      <point x="343" y="75" type="line"/>
      <point x="513" y="40" type="line"/>
      <point x="513" y="0" type="line"/>
      <point x="86" y="0" type="line"/>
      <point x="86" y="40" type="line"/>
      <point x="266" y="75" type="line"/>
    </contour>
    <contour>
      <point x="994" y="499" type="line"/>
      <point x="996" y="75" type="line"/>
      <point x="1176" y="40" type="line"/>
      <point x="1176" y="0" type="line"/>
      <point x="749" y="0" type="line"/>
      <point x="749" y="40" type="line"/>
      <point x="919" y="75" type="line"/>
      <point x="921" y="499" type="line"/>
      <point x="919" y="923" type="line"/>
      <point x="749" y="958" type="line"/>
      <point x="749" y="998" type="line"/>
      <point x="1176" y="998" type="line"/>
      <point x="1176" y="958" type="line"/>
      <point x="996" y="923" type="line"/>
    </contour>
  </outline>
</glyph>
<glyph name="el" format="2">
  <advance width="1205"/>
  <unicode hex="043B"/>
  <outline>
    <contour>
      <point x="401" y="923" type="line"/>
      <point x="174" y="958" type="line"/>
      <point x="174" y="998" type="line"/>
      <point x="1119" y="998" type="line"/>
      <point x="1119" y="958" type="line"/>
      <point x="951" y="923" type="line"/>
      <point x="949" y="499" type="line"/>
      <point x="951" y="75" type="line"/>
      <point x="1119" y="40" type="line"/>
      <point x="1119" y="0" type="line"/>
      <point x="696" y="0" type="line"/>
      <point x="696" y="40" type="line"/>
      <point x="874" y="75" type="line"/>
      <point x="876" y="499" type="line"/>
      <point x="874" y="952" type="line"/>
      <point x="454" y="952" type="line"/>
      <point x="412" y="438" type="line" smooth="yes"/>
      <point x="392" y="203"/>
      <point x="283" y="-17"/>
      <point x="156" y="-17" type="qcurve" smooth="yes"/>
      <point x="135" y="-17"/>
      <point x="102" y="-11"/>
      <point x="76" y="-2" type="qcurve"/>
      <point x="76" y="163" type="line"/>
      <point x="98" y="156"/>
      <point x="134" y="151"/>
      <point x="153" y="151" type="qcurve" smooth="yes"/>
      <point x="246" y="151"/>
      <point x="346" y="305"/>
      <point x="359" y="453" type="qcurve" smooth="yes"/>
    </contour>
  </outline>
</glyph>
<glyph name="en" format="2">
  <advance width="1226"/>
  <unicode hex="043D"/>
  <outline>
    <contour>
      <point x="292" y="553" type="line"/>
      <point x="612" y="550" type="line"/>
      <point x="933" y="553" type="line"/>
      <point x="933" y="504" type="line"/>
      <point x="612" y="506" type="line"/>
      <point x="292" y="504" type="line"/>
    </contour>
    <contour>
      <point x="256" y="499" type="line"/>
      <point x="254" y="923" type="line"/>
      <point x="86" y="958" type="line"/>
      <point x="86" y="998" type="line"/>
      <point x="489" y="998" type="line"/>
      <point x="489" y="958" type="line"/>
      <point x="331" y="923" type="line"/>
      <point x="329" y="499" type="line"/>
      <point x="331" y="75" type="line"/>
      <point x="489" y="40" type="line"/>
      <point x="489" y="0" type="line"/>
      <point x="86" y="0" type="line"/>
      <point x="86" y="40" type="line"/>
      <point x="254" y="75" type="line"/>
    </contour>
    <contour>
      <point x="970" y="499" type="line"/>
      <point x="972" y="75" type="line"/>
      <point x="1140" y="40" type="line"/>
      <point x="1140" y="0" type="line"/>
      <point x="737" y="0" type="line"/>
      <point x="737" y="40" type="line"/>
      <point x="895" y="75" type="line"/>
      <point x="897" y="499" type="line"/>
      <point x="895" y="923" type="line"/>
      <point x="737" y="958" type="line"/>
      <point x="737" y="998" type="line"/>
      <point x="1140" y="998" type="line"/>
      <point x="1140" y="958" type="line"/>
      <point x="972" y="923" type="line"/>
    </contour>
  </outline>
</glyph>
<glyph name="soft" format="2">
  <advance width="1021"/>
  <unicode hex="044C"/>
  <outline>
    <contour>
      <point x="320" y="46" type="line"/>
      <point x="594" y="46" type="line" smooth="yes"/>
      <point x="737" y="46"/>
      <point x="853" y="198"/>
      <point x="853" y="315" type="qcurve" smooth="yes"/>
      <point x="853" y="428"/>
      <point x="737" y="574"/>
      <point x="594" y="574" type="qcurve" smooth="yes"/>
      <point x="281" y="574" type="line"/>
      <point x="281" y="620" type="line"/>
      <point x="571" y="620" type="line" smooth="yes"/>
      <point x="746" y="620"/>
      <point x="935" y="454"/>
      <point x="935" y="313" type="qcurve" smooth="yes"/>
      <point x="935" y="172"/>
      <point x="746" y="0"/>
      <point x="571" y="0" type="qcurve" smooth="yes"/>
      <point x="74" y="0" type="line"/>
      <point x="74" y="40" type="line"/>
      <point x="242" y="75" type="line"/>
      <point x="244" y="499" type="line"/>
      <point x="242" y="923" type="line"/>
      <point x="74" y="958" type="line"/>
      <point x="74" y="998" type="line"/>
      <point x="488" y="998" type="line"/>
      <point x="488" y="958" type="line"/>
      <point x="320" y="923" type="line"/>
      <point x="318" y="499" type="line"/>
    </contour>
  </outline>
</glyph>
<glyph name="kaverticalstrokecyr" format="2">
  <advance width="1376"/>
  <unicode hex="049D"/>
  <outline>
    <contour>
      <point x="256" y="499" type="line"/>
      <point x="254" y="923" type="line"/>
      <point x="86" y="958" type="line"/>
      <point x="86" y="998" type="line"/>
      <point x="490" y="998" type="line"/>
      <point x="490" y="958" type="line"/>
      <point x="332" y="923" type="line"/>
      <point x="330" y="499" type="line"/>
      <point x="332" y="75" type="line"/>
      <point x="490" y="40" type="line"/>
      <point x="490" y="0" type="line"/>
      <point x="86" y="0" type="line"/>
      <point x="86" y="40" type="line"/>
      <point x="254" y="75" type="line"/>
    </contour>
    <contour>
      <point x="555" y="510" type="line"/>
      <point x="688" y="509" type="line"/>
      <point x="1049" y="918" type="line"/>
      <point x="865" y="958" type="line"/>
      <point x="865" y="998" type="line"/>
      <point x="1280" y="998" type="line"/>
      <point x="1280" y="958" type="line"/>
      <point x="1136" y="913" type="line"/>
      <point x="698" y="474" type="line"/>
      <point x="690" y="465" type="line"/>
      <point x="555" y="465" type="line"/>
    </contour>
    <contour>
      <point x="689" y="503" type="line"/>
      <point x="739" y="553" type="line"/>
      <point x="1196" y="75" type="line"/>
      <point x="1302" y="40" type="line"/>
      <point x="1302" y="0" type="line"/>
      <point x="1038" y="0" type="line"/>
      <point x="1033" y="40" type="line"/>
      <point x="1095" y="71" type="line"/>
    </contour>
    <contour>
      <point x="581" y="226" type="line"/>
      <point x="531" y="226" type="line"/>
      <point x="531" y="791" type="line"/>
      <point x="581" y="791" type="line"/>
    </contour>
  </outline>
</glyph>
<glyph name="emdash" format="2">
  <advance width="2100"/>
  <unicode hex="2014"/>
  <outline>
    <contour>
      <point x="282" y="605" type="line"/>
      <point x="282" y="664" type="line"/>
      <point x="1050" y="665" type="line"/>
      <point x="1818" y="664" type="line"/>
      <point x="1818" y="605" type="line"/>
      <point x="1050" y="603" type="line"/>
    </contour>
  </outline>
</glyph>
<glyph name="quotesinglbase" format="2">
  <advance width="652"/>
  <unicode hex="201A"/>
  <outline>
    <contour>
      <point x="179" y="-250" type="line"/>
      <point x="246" y="-213"/>
      <point x="393" y="-52"/>
      <point x="406" y="13" type="qcurve"/>
      <point x="335" y="-13"/>
      <point x="257" y="25"/>
      <point x="257" y="68" type="qcurve" smooth="yes"/>
      <point x="257" y="97"/>
      <point x="298" y="137"/>
      <point x="330" y="137" type="qcurve" smooth="yes"/>
      <point x="360" y="137"/>
      <point x="408" y="90"/>
      <point x="408" y="51" type="qcurve" smooth="yes"/>
      <point x="408" y="-36"/>
      <point x="286" y="-233"/>
      <point x="203" y="-277" type="qcurve"/>
    </contour>
  </outline>
</glyph>
<glyph name="lessequal" format="2">
  <advance width="1244"/>
  <unicode hex="2264"/>
  <outline>
    <contour>
      <point x="173" y="46" type="line"/>
      <point x="173" y="198" type="line"/>
      <point x="1126" y="198" type="line"/>
      <point x="1126" y="46" type="line"/>
    </contour>
    <contour>
      <point x="203" y="698" type="qcurve"/>
      <point x="204" y="699"/>
      <point x="822" y="1056"/>
      <point x="894" y="1098" type="qcurve" smooth="yes"/>
      <point x="964" y="1139"/>
      <point x="1039" y="1040"/>
      <point x="974" y="995" type="qcurve" smooth="yes"/>
      <point x="834" y="897"/>
      <point x="516" y="712"/>
      <point x="472" y="697" type="qcurve"/>
      <point x="512" y="682"/>
      <point x="838" y="493"/>
      <point x="973" y="397" type="qcurve"/>
      <point x="1036" y="351"/>
      <point x="966" y="253"/>
      <point x="894" y="293" type="qcurve" smooth="yes"/>
      <point x="821" y="333"/>
      <point x="204" y="697"/>
    </contour>
  </outline>
</glyph>
<glyph name="f_f" format="2">
  <advance width="1367"/>
  <unicode hex="FB00"/>
  <outline>
    <contour>
      <point x="198" y="0" type="line"/>
      <point x="198" y="40" type="line"/>
      <point x="369" y="75" type="line"/>
      <point x="368" y="527" type="line"/>
      <point x="365" y="919" type="line"/>
      <point x="180" y="923" type="line"/>
      <point x="173" y="964" type="line"/>
      <point x="367" y="982" type="line"/>
      <point x="367" y="1177" type="line" smooth="yes"/>
      <point x="368" y="1322"/>
      <point x="479" y="1467"/>
      <point x="576" y="1467" type="qcurve" smooth="yes"/>
      <point x="631" y="1467"/>
      <point x="705" y="1455"/>
      <point x="737" y="1448" type="qcurve" smooth="yes"/>
      <point x="769" y="1441" type="line"/>
      <point x="758" y="1394" type="line"/>
      <point x="722" y="1403" type="line" smooth="yes"/>
      <point x="703" y="1407"/>
      <point x="656" y="1415"/>
      <point x="629" y="1415" type="qcurve" smooth="yes"/>
      <point x="538" y="1415"/>
      <point x="435" y="1323"/>
      <point x="436" y="1202" type="qcurve" smooth="yes"/>
      <point x="438" y="983" type="line"/>
      <point x="986" y="983" type="line"/>
      <point x="986" y="1305" type="line" smooth="yes"/>
      <point x="987" y="1404"/>
      <point x="1090" y="1519"/>
      <point x="1171" y="1519" type="qcurve" smooth="yes"/>
      <point x="1214" y="1519"/>
      <point x="1268" y="1512"/>
      <point x="1296" y="1507" type="qcurve" smooth="yes"/>
      <point x="1332" y="1500" type="line"/>
      <point x="1322" y="1453" type="line"/>
      <point x="1288" y="1460" type="line" smooth="yes"/>
      <point x="1266" y="1464"/>
      <point x="1235" y="1467"/>
      <point x="1212" y="1467" type="qcurve" smooth="yes"/>
      <point x="1140" y="1467"/>
      <point x="1055" y="1403"/>
      <point x="1055" y="1330" type="qcurve" smooth="yes"/>
      <point x="1057" y="983" type="line"/>
      <point x="1312" y="983" type="line"/>
      <point x="1312" y="939" type="line"/>
      <point x="1057" y="928" type="line"/>
      <point x="1060" y="527" type="line"/>
      <point x="1073" y="75" type="line"/>
      <point x="1256" y="40" type="line"/>
      <point x="1256" y="0" type="line"/>
      <point x="844" y="0" type="line"/>
      <point x="844" y="40" type="line"/>
      <point x="987" y="75" type="line"/>
      <point x="987" y="527" type="line"/>
      <point x="984" y="919" type="line"/>
      <point x="972" y="932" type="line"/>
      <point x="438" y="936" type="line"/>
      <point x="440" y="527" type="line"/>
      <point x="454" y="75" type="line"/>
      <point x="615" y="40" type="line"/>
      <point x="615" y="0" type="line"/>
    </contour>
  </outline>
</glyph>
<glyph name="fl" format="2">
  <advance width="1328"/>
  <unicode hex="FB02"/>
  <outline>
    <contour>
      <point x="198" y="0" type="line"/>
      <point x="198" y="40" type="line"/>
      <point x="367" y="75" type="line"/>
      <point x="368" y="527" type="line"/>
      <point x="365" y="914" type="line"/>
      <point x="180" y="923" type="line"/>
      <point x="173" y="964" type="line"/>
      <point x="367" y="982" type="line"/>
      <point x="371" y="1303" type="line" smooth="yes"/>
      <point x="372" y="1402"/>
      <point x="480" y="1517"/>
      <point x="568" y="1517" type="qcurve" smooth="yes"/>
      <point x="604" y="1517"/>
      <point x="654" y="1508"/>
      <point x="686" y="1498" type="qcurve" smooth="yes"/>
      <point x="734" y="1487" type="line"/>
      <point x="1018" y="1514" type="line"/>
      <point x="1055" y="1512" type="line"/>
      <point x="1078" y="1481" type="line"/>
      <point x="1076" y="527" type="line"/>
      <point x="1078" y="75" type="line"/>
      <point x="1236" y="40" type="line"/>
      <point x="1236" y="0" type="line"/>
      <point x="856" y="0" type="line"/>
      <point x="856" y="40" type="line"/>
      <point x="1001" y="75" type="line"/>
      <point x="1003" y="527" type="line"/>
      <point x="1001" y="1356" type="line"/>
      <point x="677" y="1400" type="line" smooth="yes"/>
      <point x="660" y="1431"/>
      <point x="624" y="1460"/>
      <point x="592" y="1460" type="qcurve" smooth="yes"/>
      <point x="518" y="1460"/>
      <point x="436" y="1396"/>
      <point x="436" y="1323" type="qcurve" smooth="yes"/>
      <point x="438" y="983" type="line"/>
      <point x="760" y="983" type="line"/>
      <point x="760" y="939" type="line"/>
      <point x="438" y="928" type="line"/>
      <point x="440" y="527" type="line"/>
      <point x="453" y="75" type="line"/>
      <point x="623" y="40" type="line"/>
      <point x="623" y="0" type="line"/>
    </contour>
  </outline>
</glyph>
<glyph name="f_f_l" format="2">
  <advance width="1669"/>
  <unicode hex="FB04"/>
  <outline>
    <contour>
      <point x="80" y="0" type="line"/>
      <point x="80" y="40" type="line"/>
      <point x="249" y="75" type="line"/>
      <point x="250" y="527" type="line"/>
      <point x="247" y="919" type="line"/>
      <point x="91" y="924" type="line"/>
      <point x="86" y="964" type="line"/>
      <point x="249" y="982" type="line"/>
      <point x="248" y="1177" type="line" smooth="yes"/>
      <point x="248" y="1322"/>
      <point x="354" y="1467"/>
      <point x="438" y="1467" type="qcurve" smooth="yes"/>
      <point x="480" y="1467"/>
      <point x="543" y="1454"/>
      <point x="575" y="1447" type="qcurve" smooth="yes"/>
      <point x="601" y="1441" type="line"/>
      <point x="594" y="1394" type="line"/>
      <point x="570" y="1401" type="line" smooth="yes"/>
      <point x="547" y="1408"/>
      <point x="504" y="1415"/>
      <point x="483" y="1415" type="qcurve" smooth="yes"/>
      <point x="405" y="1415"/>
      <point x="317" y="1324"/>
      <point x="318" y="1203" type="qcurve" smooth="yes"/>
      <point x="320" y="983" type="line"/>
      <point x="789" y="983" type="line"/>
      <point x="793" y="1303" type="line" smooth="yes"/>
      <point x="794" y="1402"/>
      <point x="876" y="1517"/>
      <point x="959" y="1517" type="qcurve" smooth="yes"/>
      <point x="1000" y="1517"/>
      <point x="1042" y="1507"/>
      <point x="1068" y="1498" type="qcurve" smooth="yes"/>
      <point x="1108" y="1487" type="line"/>
      <point x="1359" y="1514" type="line"/>
      <point x="1396" y="1512" type="line"/>
      <point x="1419" y="1481" type="line"/>
      <point x="1417" y="527" type="line"/>
      <point x="1419" y="75" type="line"/>
      <point x="1577" y="40" type="line"/>
      <point x="1577" y="0" type="line"/>
      <point x="1200" y="0" type="line"/>
      <point x="1200" y="40" type="line"/>
      <point x="1342" y="75" type="line"/>
      <point x="1344" y="527" type="line"/>
      <point x="1342" y="1364" type="line"/>
      <point x="1067" y="1400" type="line" smooth="yes"/>
      <point x="1052" y="1430"/>
      <point x="1021" y="1460"/>
      <point x="992" y="1460" type="qcurve" smooth="yes"/>
      <point x="931" y="1460"/>
      <point x="858" y="1396"/>
      <point x="859" y="1323" type="qcurve" smooth="yes"/>
      <point x="861" y="983" type="line"/>
      <point x="1147" y="983" type="line"/>
      <point x="1147" y="939" type="line"/>
      <point x="861" y="931" type="line"/>
      <point x="863" y="527" type="line"/>
      <point x="875" y="75" type="line"/>
      <point x="1049" y="40" type="line"/>
      <point x="1049" y="0" type="line"/>
      <point x="650" y="0" type="line"/>
      <point x="650" y="40" type="line"/>
      <point x="789" y="75" type="line"/>
      <point x="790" y="527" type="line"/>
      <point x="787" y="908" type="line"/>
      <point x="777" y="929" type="line"/>
      <point x="320" y="936" type="line"/>
      <point x="322" y="527" type="line"/>
      <point x="335" y="75" type="line"/>
      <point x="499" y="40" type="line"/>
      <point x="499" y="0" type="line"/>
    </contour>
  </outline>
</glyph>
<glyph name="acutecomb.case" format="2">
  <advance width="318"/>
  <anchor x="143" y="1500" name="_top"/>
  <anchor x="143" y="2086" name="top"/>
  <outline>
    <contour>
      <point x="459" y="2010" type="qcurve" smooth="yes"/>
      <point x="455" y="1983"/>
      <point x="419" y="1961"/>
      <point x="393" y="1952" type="qcurve" smooth="yes"/>
      <point x="-4" y="1705" type="line"/>
      <point x="-31" y="1745" type="line"/>
      <point x="332" y="2019" type="line" smooth="yes"/>
      <point x="355" y="2037"/>
      <point x="395" y="2064"/>
      <point x="414" y="2060" type="qcurve" smooth="yes"/>
      <point x="435" y="2058"/>
      <point x="463" y="2029"/>
    </contour>
  </outline>
</glyph>
<glyph name="be.locl" format="2">
  <advance width="1134"/>
  <outline>
    <contour>
      <point x="170" y="514" type="qcurve" smooth="yes"/>
      <point x="171" y="310"/>
      <point x="390" y="27"/>
      <point x="565" y="27" type="qcurve" smooth="yes"/>
      <point x="752" y="27"/>
      <point x="962" y="285"/>
      <point x="962" y="498" type="qcurve" smooth="yes"/>
      <point x="962" y="694"/>
      <point x="743" y="949"/>
      <point x="567" y="949" type="qcurve" smooth="yes"/>
      <point x="377" y="949"/>
      <point x="169" y="717"/>
    </contour>
    <contour>
      <point x="90" y="502" type="qcurve" smooth="yes"/>
      <point x="90" y="666"/>
      <point x="280" y="924"/>
      <point x="501" y="980" type="qcurve"/>
      <point x="507" y="983" type="line"/>
      <point x="322" y="1023"/>
      <point x="187" y="1122"/>
      <point x="187" y="1219" type="qcurve" smooth="yes"/>
      <point x="187" y="1321"/>
      <point x="377" y="1432"/>
      <point x="557" y="1437" type="qcurve" smooth="yes"/>
      <point x="670" y="1438" type="line" smooth="yes"/>
      <point x="799" y="1442"/>
      <point x="906" y="1504"/>
      <point x="916" y="1537" type="qcurve"/>
      <point x="952" y="1537" type="line"/>
      <point x="940" y="1433"/>
      <point x="797" y="1372"/>
      <point x="625" y="1366" type="qcurve" smooth="yes"/>
      <point x="562" y="1365" type="line" smooth="yes"/>
      <point x="404" y="1360"/>
      <point x="250" y="1281"/>
      <point x="250" y="1194" type="qcurve" smooth="yes"/>
      <point x="250" y="1112"/>
      <point x="411" y="1023"/>
      <point x="627" y="986" type="qcurve" smooth="yes"/>
      <point x="828" y="953"/>
      <point x="1044" y="697"/>
      <point x="1044" y="499" type="qcurve" smooth="yes"/>
      <point x="1044" y="289"/>
      <point x="783" y="-22"/>
      <point x="570" y="-22" type="qcurve" smooth="yes"/>
      <point x="357" y="-22"/>
      <point x="90" y="266"/>
    </contour>
  </outline>
</glyph>
<glyph name="cedillacomb.case" format="2">
  <advance width="318"/>
  <anchor x="160" y="0" name="_bottom"/>
  <anchor x="160" y="-558" name="bottom"/>
  <outline>
    <contour>
      <point x="198" y="4" type="line"/>
      <point x="87" y="-204" type="line"/>
      <point x="113" y="-194"/>
      <point x="172" y="-182"/>
      <point x="209" y="-182" type="qcurve" smooth="yes"/>
      <point x="300" y="-182"/>
      <point x="431" y="-269"/>
      <point x="431" y="-356" type="qcurve" smooth="yes"/>
      <point x="431" y="-449"/>
      <point x="291" y="-558"/>
      <point x="180" y="-558" type="qcurve" smooth="yes"/>
      <point x="87" y="-558"/>
      <point x="-65" y="-515"/>
      <point x="-120" y="-472" type="qcurve"/>
      <point x="-97" y="-425" type="line"/>
      <point x="-45" y="-464"/>
      <point x="87" y="-503"/>
      <point x="139" y="-503" type="qcurve" smooth="yes"/>
      <point x="197" y="-503"/>
      <point x="268" y="-418"/>
      <point x="268" y="-351" type="qcurve" smooth="yes"/>
      <point x="268" y="-292"/>
      <point x="211" y="-227"/>
      <point x="154" y="-227" type="qcurve" smooth="yes"/>
      <point x="128" y="-227"/>
      <point x="77" y="-238"/>
      <point x="51" y="-249" type="qcurve"/>
      <point x="26" y="-215" type="line"/>
      <point x="152" y="16" type="line"/>
    </contour>
  </outline>
</glyph>
<glyph name="dotaccentcomb.case" format="2">
  <advance width="318"/>
  <anchor x="159" y="1500" name="_top"/>
  <anchor x="159" y="1910" name="top"/>
  <outline>
    <contour>
      <point x="79" y="1792" type="qcurve" smooth="yes"/>
      <point x="79" y="1829"/>
      <point x="120" y="1870"/>
      <point x="159" y="1870" type="qcurve" smooth="yes"/>
      <point x="195" y="1870"/>
      <point x="239" y="1827"/>
      <point x="239" y="1792" type="qcurve" smooth="yes"/>
      <point x="239" y="1754"/>
      <point x="198" y="1714"/>
      <point x="159" y="1714" type="qcurve" smooth="yes"/>
      <point x="123" y="1714"/>
      <point x="79" y="1756"/>
    </contour>
  </outline>
</glyph>
<glyph name="five.lf" format="2">
  <advance width="1068"/>
  <outline>
    <contour>
      <point x="28" y="143" type="qcurve"/>
      <point x="97" y="250" type="line"/>
      <point x="154" y="201"/>
      <point x="336" y="111"/>
      <point x="470" y="111" type="qcurve" smooth="yes"/>
      <point x="605" y="111"/>
      <point x="794" y="272"/>
      <point x="794" y="444" type="qcurve" smooth="yes"/>
      <point x="794" y="613"/>
      <point x="510" y="796"/>
      <point x="295" y="796" type="qcurve" smooth="yes"/>
      <point x="183" y="796" type="line"/>
      <point x="140" y="850" type="line"/>
      <point x="208" y="1467" type="line"/>
      <point x="235" y="1500" type="line"/>
      <point x="894" y="1500" type="line"/>
      <point x="884" y="1324" type="line"/>
      <point x="310" y="1324" type="line"/>
      <point x="300" y="1313" type="line"/>
      <point x="248" y="905" type="line"/>
      <point x="390" y="947" type="line"/>
      <point x="647" y="947"/>
      <point x="982" y="721"/>
      <point x="982" y="502" type="qcurve" smooth="yes"/>
      <point x="982" y="261"/>
      <point x="690" y="-22"/>
      <point x="491" y="-22" type="qcurve" smooth="yes"/>
      <point x="338" y="-22"/>
      <point x="97" y="73"/>
    </contour>
  </outline>
</glyph>
<glyph name="horizontalbarH" format="2">
  <advance width="1457"/>
  <outline>
    <contour>
      <point x="1420" y="996" type="line"/>
      <point x="1254" y="995" type="line"/>
      <point x="1254" y="1132" type="line"/>
      <point x="1431" y="1133" type="line"/>
    </contour>
    <contour>
      <point x="36" y="995" type="line"/>
      <point x="26" y="1132" type="line"/>
      <point x="207" y="1132" type="line"/>
      <point x="207" y="995" type="line"/>
    </contour>
    <contour>
      <point x="207" y="995" type="line"/>
      <point x="207" y="1132" type="line"/>
      <point x="1254" y="1132" type="line"/>
      <point x="1254" y="995" type="line"/>
    </contour>
  </outline>
</glyph>
<glyph name="hornU" format="2">
  <advance width="1818"/>
  <anchor x="1449" y="1500" name="topright"/>
  <anchor x="937" y="1500" name="top"/>
  <outline>
    <contour>
      <point x="70" y="1445" type="line"/>
      <point x="70" y="1500" type="line"/>
      <point x="595" y="1500" type="line"/>
      <point x="595" y="1445" type="line"/>
      <point x="368" y="1411" type="line"/>
      <point x="366" y="794" type="line"/>
      <point x="367" y="432" type="line" smooth="yes"/>
      <point x="368" y="240"/>
      <point x="633" y="31"/>
      <point x="844" y="31" type="qcurve" smooth="yes"/>
      <point x="1041" y="31"/>
      <point x="1306" y="235"/>
      <point x="1307" y="449" type="qcurve" smooth="yes"/>
      <point x="1309" y="794" type="line"/>
      <point x="1307" y="1411" type="line"/>
      <point x="1069" y="1445" type="line"/>
      <point x="1069" y="1500" type="line"/>
      <point x="1371" y="1500" type="line"/>
      <point x="1367" y="794" type="line"/>
      <point x="1370" y="470" type="line" smooth="yes"/>
      <point x="1372" y="209"/>
      <point x="1067" y="-31"/>
      <point x="854" y="-31" type="qcurve" smooth="yes"/>
      <point x="585" y="-31"/>
      <point x="287" y="242"/>
      <point x="288" y="481" type="qcurve" smooth="yes"/>
      <point x="289" y="794" type="line"/>
      <point x="288" y="1411" type="line"/>
    </contour>
  </outline>
</glyph>
<glyph name="ringcomb.case" format="2">
  <advance width="318"/>
  <anchor x="159" y="1500" name="_top"/>
  <anchor x="159" y="2056" name="top"/>
  <outline>
    <contour>
      <point x="-40" y="1848" type="qcurve" smooth="yes"/>
      <point x="-40" y="1931"/>
      <point x="74" y="2038"/>
      <point x="159" y="2038" type="qcurve" smooth="yes"/>
      <point x="243" y="2038"/>
      <point x="358" y="1928"/>
      <point x="358" y="1848" type="qcurve" smooth="yes"/>
      <point x="358" y="1765"/>
      <point x="244" y="1658"/>
      <point x="159" y="1658" type="qcurve" smooth="yes"/>
      <point x="74" y="1658"/>
      <point x="-40" y="1767"/>
    </contour>
    <contour>
      <point x="10" y="1848" type="qcurve" smooth="yes"/>
      <point x="10" y="1787"/>
      <point x="95" y="1704"/>
      <point x="159" y="1704" type="qcurve" smooth="yes"/>
      <point x="225" y="1704"/>
      <point x="308" y="1785"/>
      <point x="308" y="1848" type="qcurve" smooth="yes"/>
      <point x="308" y="1907"/>
      <point x="223" y="1992"/>
      <point x="159" y="1992" type="qcurve" smooth="yes"/>
      <point x="93" y="1992"/>
      <point x="10" y="1912"/>
    </contour>
  </outline>
</glyph>
